<?xml version="1.0" encoding="UTF-8" standalone="no"?>
<!-- Created with Inkscape (http://www.inkscape.org/) -->

<svg
   width="3.8519897mm"
   height="7.8438416mm"
   viewBox="0 0 3.8519897 7.8438416"
   version="1.1"
   id="svg5"
   xml:space="preserve"
   sodipodi:docname="cas.co-project.svg"
   inkscape:version="1.2.2 (b0a8486541, 2022-12-01)"
   inkscape:export-filename="cas.co-project.png"
   inkscape:export-xdpi="96"
   inkscape:export-ydpi="96"
   xmlns:inkscape="http://www.inkscape.org/namespaces/inkscape"
   xmlns:sodipodi="http://sodipodi.sourceforge.net/DTD/sodipodi-0.dtd"
   xmlns="http://www.w3.org/2000/svg"
   xmlns:svg="http://www.w3.org/2000/svg"><sodipodi:namedview
     id="namedview7"
     pagecolor="#ffffff"
     bordercolor="#000000"
     borderopacity="0.25"
     inkscape:showpageshadow="2"
     inkscape:pageopacity="0.0"
     inkscape:pagecheckerboard="0"
     inkscape:deskcolor="#d1d1d1"
     inkscape:document-units="mm"
     showgrid="false"
     inkscape:zoom="0.31879706"
     inkscape:cx="2390.2354"
     inkscape:cy="334.06833"
     inkscape:window-width="1920"
     inkscape:window-height="1011"
     inkscape:window-x="0"
     inkscape:window-y="0"
     inkscape:window-maximized="1"
     inkscape:current-layer="layer1"
     showguides="false" /><defs
     id="defs2" /><g
     inkscape:label="Layer 1"
     inkscape:groupmode="layer"
     id="layer1"
     transform="translate(-751.76131,-148.28109)"><path
       style="fill:#fec706;fill-opacity:1;stroke-width:0.014196"
       d="m 752.55052,156.12393 c 0,0 0.43695,-1.32988 0.67453,-2.13739 0.097,-0.32969 0.17637,-0.60598 0.17637,-0.61398 0,-0.01 -0.13686,-0.0146 -0.40104,-0.0146 l -0.40104,-1e-4 -0.0449,-0.15251 c -0.46677,-1.58669 -0.73118,-2.48417 -0.73614,-2.49863 -0.005,-0.0143 0.0704,-0.0172 0.36509,-0.0142 l 0.37126,0.004 0.15303,0.63882 c 0.0842,0.35135 0.18892,0.79853 0.2328,0.99372 0.0721,0.32099 0.0938,0.39406 0.11122,0.37525 0.003,-0.003 0.029,-0.10836 0.0574,-0.23329 0.0285,-0.12492 0.13282,-0.57689 0.23192,-1.00437 l 0.18018,-0.77723 h 0.35637 0.35637 l 0.0893,-0.28037 c 0.15194,-0.4772 0.62963,-2.13356 0.63526,-2.12793 0.014,0.014 -0.42492,1.81548 -0.78265,3.01112 -0.098,0.32765 -0.17824,0.60027 -0.17824,0.60585 0,0.006 0.0363,-0.0118 0.0808,-0.0385 0.22434,-0.13509 0.5533,-0.18445 0.83771,-0.1257 0.20105,0.0415 0.43017,0.15275 0.57537,0.27932 l 0.0529,0.0461 -0.16264,0.20481 c -0.0895,0.11265 -0.16856,0.21073 -0.17578,0.21795 -0.008,0.008 -0.0508,-0.009 -0.11034,-0.0442 -0.18248,-0.10752 -0.41309,-0.15564 -0.55772,-0.11636 -0.0901,0.0245 -0.15702,0.0953 -0.15702,0.16615 0,0.11167 0.0467,0.14231 0.46138,0.30303 0.36188,0.14024 0.44239,0.18186 0.55459,0.28669 0.15853,0.14812 0.22799,0.33533 0.21481,0.57893 -0.02,0.3697 -0.2634,0.65117 -0.66332,0.7671 -0.13578,0.0394 -0.44784,0.0538 -0.60716,0.0281 -0.23266,-0.0375 -0.52064,-0.15955 -0.68853,-0.29181 l -0.0823,-0.0648 0.0608,-0.0738 c 0.0334,-0.0406 0.12365,-0.14902 0.20052,-0.24099 l 0.13977,-0.16722 0.0677,0.0497 c 0.0887,0.0651 0.28444,0.15772 0.39092,0.18498 0.15264,0.0391 0.32261,0.0235 0.40835,-0.0374 0.0528,-0.0375 0.078,-0.12332 0.0535,-0.18236 -0.029,-0.0699 -0.0878,-0.10401 -0.40499,-0.23484 -0.16371,-0.0675 -0.34238,-0.14607 -0.39704,-0.17456 -0.12657,-0.066 -0.27306,-0.20837 -0.32948,-0.32024 -0.0233,-0.0461 -0.0457,-0.0781 -0.0499,-0.071 -0.004,0.007 -0.025,0.0704 -0.0462,0.14064 -0.22128,0.7331 -1.11382,3.1563 -1.11382,3.1563 z"
       id="path858"
       sodipodi:nodetypes="sssscssscssssscccssssssscssssssssssscsscsssssssssss" /><path
       style="fill:#002d00;fill-opacity:1;stroke-width:0.014196"
       d="m 752.55052,156.12393 c -0.003,-0.0274 0.38017,-1.38666 0.61775,-2.19418 0.097,-0.32969 0.17636,-0.60598 0.17636,-0.61397 0,-0.01 -0.13685,-0.0146 -0.40103,-0.0146 l -0.40104,-1.1e-4 -0.0449,-0.15251 c -0.46676,-1.58668 -0.73117,-2.48417 -0.73613,-2.49862 -0.005,-0.0143 0.0704,-0.0172 0.36509,-0.0142 l 0.37126,0.004 0.15302,0.63882 c 0.0842,0.35135 0.18893,0.79852 0.2328,0.99372 0.0721,0.32098 0.0938,0.39405 0.11123,0.37525 0.003,-0.003 0.029,-0.10836 0.0574,-0.23329 0.0285,-0.12492 0.13281,-0.57689 0.23191,-1.00437 l 0.18019,-0.77723 h 0.35636 0.35637 l 0.0893,-0.28037 c 0.15194,-0.4772 0.68642,-2.07678 0.69205,-2.07115 0.014,0.014 -0.4817,1.7587 -0.83944,2.95433 -0.098,0.32765 -0.17823,0.60028 -0.17823,0.60585 0,0.006 0.0363,-0.0117 0.0808,-0.0385 0.22433,-0.13509 0.5533,-0.18445 0.83771,-0.12571 0.20105,0.0415 0.43017,0.15276 0.57536,0.27932 l 0.053,0.0462 -0.16265,0.20481 c -0.0895,0.11265 -0.16856,0.21072 -0.17578,0.21794 -0.008,0.008 -0.0508,-0.009 -0.11034,-0.0441 -0.18247,-0.10753 -0.41309,-0.15564 -0.55772,-0.11636 -0.0901,0.0245 -0.15701,0.0952 -0.15701,0.16615 0,0.11167 0.0466,0.14231 0.46137,0.30302 0.36189,0.14024 0.4424,0.18186 0.5546,0.2867 0.15853,0.14811 0.22799,0.33532 0.2148,0.57893 -0.02,0.3697 -0.2634,0.65117 -0.66332,0.76709 -0.13578,0.0394 -0.44783,0.0538 -0.60715,0.0281 -0.23266,-0.0375 -0.52065,-0.15956 -0.68854,-0.29181 l -0.0823,-0.0648 0.0607,-0.0738 c 0.0334,-0.0406 0.12365,-0.14902 0.20052,-0.24099 l 0.13977,-0.16722 0.0677,0.0497 c 0.0887,0.0651 0.28443,0.15773 0.39092,0.18499 0.15264,0.0391 0.32261,0.0235 0.40834,-0.0374 0.0528,-0.0375 0.078,-0.12331 0.0535,-0.18235 -0.029,-0.0699 -0.0878,-0.10402 -0.40498,-0.23485 -0.16372,-0.0675 -0.34238,-0.14607 -0.39704,-0.17456 -0.12657,-0.066 -0.27306,-0.20836 -0.32949,-0.32023 -0.0233,-0.0461 -0.0457,-0.0781 -0.0499,-0.071 -0.004,0.007 -0.025,0.0704 -0.0462,0.14063 -0.22127,0.73311 -1.05267,3.26034 -1.05703,3.21308 z"
       id="path302" /></g></svg>
