<?xml version="1.0" encoding="UTF-8" standalone="no"?>
<!-- Created with Inkscape (http://www.inkscape.org/) -->

<svg
   width="71.792175mm"
   height="146.19022mm"
   viewBox="0 0 71.792175 146.19022"
   version="1.1"
   id="svg5"
   xml:space="preserve"
   sodipodi:docname="cas.co-project.svg"
   inkscape:version="1.2.2 (b0a8486541, 2022-12-01)"
   inkscape:export-filename="cas.co-project.png"
   inkscape:export-xdpi="96"
   inkscape:export-ydpi="96"
   xmlns:inkscape="http://www.inkscape.org/namespaces/inkscape"
   xmlns:sodipodi="http://sodipodi.sourceforge.net/DTD/sodipodi-0.dtd"
   xmlns="http://www.w3.org/2000/svg"
   xmlns:svg="http://www.w3.org/2000/svg"><sodipodi:namedview
     id="namedview7"
     pagecolor="#ffffff"
     bordercolor="#000000"
     borderopacity="0.25"
     inkscape:showpageshadow="2"
     inkscape:pageopacity="0.0"
     inkscape:pagecheckerboard="0"
     inkscape:deskcolor="#d1d1d1"
     inkscape:document-units="mm"
     showgrid="false"
     inkscape:zoom="0.31879706"
     inkscape:cx="2390.2354"
     inkscape:cy="334.06833"
     inkscape:window-width="1920"
     inkscape:window-height="1011"
     inkscape:window-x="0"
     inkscape:window-y="0"
     inkscape:window-maximized="1"
     inkscape:current-layer="layer1"
     showguides="false" /><defs
     id="defs2" /><g
     inkscape:label="Layer 1"
     inkscape:groupmode="layer"
     id="layer1"
     transform="translate(-765.58693,-124.11688)"><path
       style="fill:#fec706;fill-opacity:1;stroke-width:0.264583"
       d="m 780.29566,270.29491 c 0,0 8.14377,-24.78594 12.57181,-39.8363 1.80786,-6.14471 3.28703,-11.29417 3.28703,-11.44323 0,-0.17853 -2.55072,-0.27165 -7.47448,-0.27287 l -7.47448,-0.002 -0.83616,-2.84242 c -8.69945,-29.57241 -13.62755,-46.29964 -13.71999,-46.56906 -0.0913,-0.26597 1.31248,-0.32056 6.8045,-0.26458 l 6.91947,0.0705 2.85208,11.90625 c 1.56865,6.54844 3.52114,14.88282 4.33888,18.52084 1.3447,5.98244 1.74835,7.34427 2.07299,6.99383 0.0584,-0.0631 0.54007,-2.01966 1.07034,-4.348 0.53028,-2.32833 2.47536,-10.752 4.3224,-18.71927 l 3.35827,-14.48594 h 6.64192 6.64193 l 1.6638,-5.22552 c 2.83181,-8.8939 11.73503,-39.76492 11.83995,-39.65999 0.26137,0.26136 -7.91958,33.83664 -14.58694,56.12072 -1.82709,6.1066 -3.32198,11.18784 -3.32198,11.29164 0,0.10379 0.67743,-0.21922 1.50541,-0.7178 4.18114,-2.51775 10.31229,-3.43776 15.61316,-2.34284 3.7471,0.77399 8.01739,2.84707 10.72347,5.20589 l 0.98684,0.86019 -3.03141,3.81729 c -1.66728,2.0995 -3.14155,3.92741 -3.27616,4.06203 -0.14994,0.14994 -0.94654,-0.1688 -2.05647,-0.82283 -3.40091,-2.00402 -7.69914,-2.90079 -10.39469,-2.16872 -1.68002,0.45627 -2.9264,1.77518 -2.9264,3.0967 0,2.08132 0.86947,2.65238 8.59896,5.64779 6.74476,2.61378 8.24534,3.38948 10.33654,5.34334 2.9546,2.76053 4.24922,6.24975 4.0035,10.79004 -0.37292,6.89041 -4.90926,12.13641 -12.36291,14.29693 -2.53064,0.73353 -8.3467,1.00304 -11.31604,0.52438 -4.33629,-0.69902 -9.70372,-2.97378 -12.83286,-5.43866 l -1.53427,-1.20857 1.1323,-1.37506 c 0.62277,-0.75629 2.30454,-2.77752 3.73727,-4.49163 l 2.60497,-3.11657 1.26205,0.92643 c 1.65245,1.21301 5.3013,2.93968 7.28597,3.44778 2.84483,0.72832 6.01276,0.4378 7.61069,-0.69793 0.9842,-0.69953 1.45361,-2.29834 0.99783,-3.39867 -0.53978,-1.30315 -1.63567,-1.93864 -7.54801,-4.37697 -3.05133,-1.2584 -6.3813,-2.72248 -7.39995,-3.25351 -2.35901,-1.22976 -5.08936,-3.88343 -6.14088,-5.96843 -0.43349,-0.85952 -0.85212,-1.45484 -0.93029,-1.32291 -0.0782,0.13191 -0.46558,1.31141 -0.86089,2.6211 -4.12409,13.66347 -20.75907,58.82661 -20.75907,58.82661 z"
       id="path858"
       sodipodi:nodetypes="sssscssscssssscccssssssscssssssssssscsscsssssssssss" /><path
       style="fill:#002d00;fill-opacity:1;stroke-width:0.264583"
       d="m 780.29566,270.29491 c -0.047,-0.51052 7.08543,-25.84428 11.51347,-40.89464 1.80786,-6.14471 3.28703,-11.29417 3.28703,-11.44323 0,-0.17853 -2.55072,-0.27165 -7.47448,-0.27287 l -7.47448,-0.002 -0.83616,-2.84242 c -8.69945,-29.5724 -13.62755,-46.29963 -13.71999,-46.56905 -0.0913,-0.26597 1.31248,-0.32056 6.8045,-0.26458 l 6.91947,0.0705 2.85208,11.90625 c 1.56865,6.54844 3.52114,14.88282 4.33888,18.52084 1.3447,5.98243 1.74835,7.34426 2.07299,6.99382 0.0584,-0.0631 0.54007,-2.01965 1.07034,-4.34799 0.53028,-2.32833 2.47536,-10.752 4.3224,-18.71927 l 3.35827,-14.48594 h 6.64192 6.64193 l 1.6638,-5.22552 c 2.83181,-8.89389 12.79337,-38.70658 12.89829,-38.60166 0.26137,0.26136 -8.97792,32.77831 -15.64528,55.06239 -1.82709,6.1066 -3.32198,11.18784 -3.32198,11.29164 0,0.10379 0.67743,-0.21922 1.50541,-0.7178 4.18114,-2.51775 10.31229,-3.43776 15.61316,-2.34284 3.7471,0.77399 8.01739,2.84707 10.72347,5.20589 l 0.98684,0.86019 -3.03141,3.81729 c -1.66728,2.0995 -3.14155,3.92741 -3.27616,4.06203 -0.14994,0.14994 -0.94654,-0.1688 -2.05647,-0.82283 -3.40091,-2.00402 -7.69914,-2.90079 -10.39469,-2.16872 -1.68002,0.45627 -2.9264,1.77518 -2.9264,3.0967 0,2.08132 0.86947,2.65238 8.59896,5.64778 6.74476,2.61378 8.24534,3.38948 10.33654,5.34334 2.9546,2.76053 4.24922,6.24975 4.0035,10.79004 -0.37292,6.89041 -4.90926,12.13641 -12.36291,14.29693 -2.53064,0.73353 -8.3467,1.00304 -11.31604,0.52438 -4.33629,-0.69902 -9.70372,-2.97378 -12.83286,-5.43866 l -1.53427,-1.20857 1.1323,-1.37506 c 0.62277,-0.75629 2.30454,-2.77752 3.73727,-4.49163 l 2.60497,-3.11657 1.26205,0.92643 c 1.65245,1.21301 5.3013,2.93968 7.28597,3.44778 2.84483,0.72832 6.01276,0.4378 7.61069,-0.69793 0.9842,-0.69953 1.45361,-2.29834 0.99783,-3.39867 -0.53978,-1.30315 -1.63567,-1.93864 -7.54801,-4.37697 -3.05133,-1.2584 -6.3813,-2.72248 -7.39995,-3.25351 -2.35901,-1.22976 -5.08936,-3.88343 -6.14088,-5.96843 -0.43349,-0.85952 -0.85212,-1.45484 -0.93029,-1.32291 -0.0782,0.13191 -0.46558,1.31141 -0.86089,2.6211 -4.12409,13.66347 -19.61959,60.76563 -19.70073,59.88493 z"
       id="path302" /></g></svg>
